PathFileType	4	(X/Y/Z)	11_coords_data.trc
DataRate	CameraRate	NumFrames	NumMarkers	Units	OrigDataRate	OrigDataStartFrame	OrigNumFrames
30.0	30.0	6	21	m	30.0	11	62
Frame#	Time	THUMB_TIP	THUMB_IP	THUMB_MCP	THUMB_CMC	INDEX_TIP	INDEX_DIP	INDEX_PIP	INDEX_MCP	MIDDLE_TIP	MIDDLE_DIP	MIDDLE_PIP	MIDDLE_MCP	RING_TIP	RING_DIP	RING_PIP	RING_MCP	PINKY_TIP	PINKY_DIP	PINKY_PIP	PINKY_MCP	WRIST
X1	Y1	Z1	X2	Y2	Z2	X3	Y3	Z3	X4	Y4	Z4	X5	Y5	Z5	X6	Y6	Z6	X7	Y7	Z7	X8	Y8	Z8	X9	Y9	Z9	X10	Y10	Z10	X11	Y11	Z11	X12	Y12	Z12	X13	Y13	Z13	X14	Y14	Z14	X15	Y15	Z15	X16	Y16	Z16	X17	Y17	Z17	X18	Y18	Z18	X19	Y19	Z19	X20	Y20	Z20	X21	Y21	Z21
9	0.33333333333333187	0.46299300546011524	-0.014901530035584587	-0.16665399852012108	0.474837404323641	-0.017863134046322005	-0.14718763991751416	0.47590350213147503	-0.03047403654193237	-0.11875089302708486	0.47881000063902834	-0.03026079091010958	-0.07423800958053528	0.5095377849472368	-0.015256971028143607	-0.10499858813304963	0.5270567604317551	-0.011400079916082717	-0.10749055300490329	0.5366601532669582	0.008291058673944529	-0.11982115477777344	0.49451804849657377	0.01436305370605806	-0.12072114136208267	0.5083960273225152	-0.015402375464434348	-0.08654256279797479	0.5256915891109347	-0.010122105571594986	-0.0855514562034364	0.5408179163745173	0.012730724870881116	-0.09546870956726838	0.5001376591513487	0.03051709672270153	-0.1004596583353502	0.5064472219086311	-0.0035333078338449786	-0.07198724310587001	0.523657492381252	0.0013504536235253717	-0.06976115589133058	0.5383596572030325	0.021002702645577354	-0.07398198956827873	0.5031754467476606	0.04021881010597572	-0.07922921575956621	0.50564694251648	-0.004586727466466378	-0.05432555513630921	0.5219947353336656	-0.0005733677835065842	-0.05122029925932092	0.5321742946643089	0.017751977217313364	-0.05239090655249656	0.5029568960453311	0.038479373140127504	-0.0565863954630611	0.4622830810018609	-0.023011742144276925	-0.051989820119430985
10	0.3666666666666651	0.46308205973433425	-0.014293145887496195	-0.16653197288705623	0.4749325547067921	-0.017330593080513435	-0.1470810170376028	0.4759794643730518	-0.03017120700728082	-0.1187465395563716	0.47883310632300846	-0.03023331092350534	-0.07422976888817245	0.5096208340486674	-0.015158514166212389	-0.10491074458547789	0.5271323636681428	-0.011274122474710047	-0.10741231040976118	0.5367053841175247	0.008452799671177846	-0.11970928788903612	0.4945656024207542	0.014542095154721602	-0.12060112479263341	0.5084908027224948	-0.0153247851961954	-0.086484822013571	0.5257820823164228	-0.010031851975127348	-0.08548656957960232	0.5408476824599244	0.012874778628920613	-0.0953720901367513	0.5001558782471153	0.030654060160068552	-0.10029368938319438	0.5065396080040321	-0.0034623726672711186	-0.07191944163591135	0.5237476818829834	0.0014212423151718223	-0.06967611863647305	0.5384198969809139	0.021103998201316365	-0.07385884547987454	0.5032060731781829	0.04028983888754123	-0.07901742710208581	0.5057273617395341	-0.004598010562866683	-0.05424949941846913	0.5220739425595973	-0.0005760409970435587	-0.0511490065052802	0.5322530545801114	0.017753907899097143	-0.05224931143515066	0.5030079715212594	0.0384636518246092	-0.056337718755926636	0.46228308100186083	-0.023011742144276925	-0.051989820119430985
11	0.39999999999999825	0.46330358570285085	-0.013590781712980227	-0.1663612185824258	0.47516304307187124	-0.016707237692625276	-0.14692823185780401	0.4761543489294564	-0.029825138594074985	-0.11871904915719278	0.4788980651748199	-0.03018550015868582	-0.07419678325901913	0.5097972539409006	-0.015000358153987925	-0.10476092113428404	0.5273002388077686	-0.011071143226863756	-0.10725226430748547	0.5368389893857839	0.008715067589157965	-0.11948042573733075	0.49469593971426806	0.014775874838096503	-0.12041105663911822	0.5086564282055297	-0.015224090421208869	-0.08632483316818362	0.5259373922274765	-0.009904028179989366	-0.08529273810389382	0.5409484323949596	0.013072365974440725	-0.09509903887179194	0.5002479070215814	0.030830710997541866	-0.10002411119323995	0.506678828230215	-0.0033592314940305013	-0.07175984783553147	0.5238763945903733	0.0015367486960954357	-0.06946352702478864	0.5385059945776979	0.021269147687146384	-0.07356074721277484	0.5032557625764579	0.04039474829649814	-0.07869430145816136	0.5057804642809832	-0.004559970495576771	-0.05410342844201588	0.5221129935887835	-0.0005352492730866798	-0.05093323830716889	0.532273923557059	0.017810018077350498	-0.05194253857011355	0.5030021611752176	0.03849160775659255	-0.05598224479711633	0.4622830810018609	-0.023011742144276925	-0.051989820119430985
12	0.43333333333333146	0.46359488905684265	-0.012852088282656271	-0.16619729076815393	0.4754647201604916	-0.01604005739124803	-0.1467822460210123	0.4764063896976951	-0.029416501086043434	-0.11869303078521976	0.47897388401246416	-0.030109902748441053	-0.07416419555367337	0.5100295276981079	-0.01480013454686746	-0.10453886221546982	0.5275183658439677	-0.010795977644658006	-0.10701015090973653	0.5370384113343355	0.009050869735700684	-0.11915433535835562	0.4948871366402063	0.015039807932828886	-0.12017352863298436	0.5088814493475966	-0.015093443846084131	-0.08612198281319206	0.5261550567777289	-0.009764699199706683	-0.08501429745923039	0.5410854874222628	0.013309980845018221	-0.0947122834152081	0.5003754211006182	0.031029148536852902	-0.09969921808451543	0.506844715791462	-0.0032222478592865977	-0.0715627978102732	0.5240260311645486	0.0016908442030112436	-0.06918289687999835	0.5386070821378144	0.021483907669737512	-0.0731587703836668	0.5033113456465127	0.04052298091336792	-0.07830129015127851	0.5058545797843741	-0.0044866937589299605	-0.053947062865843054	0.522159350499578	-0.0004375000410653529	-0.050667050341501985	0.5322796288346269	0.01793718670232125	-0.05154047607019974	0.5029558860260019	0.038547825716274686	-0.055565785763891706	0.4622830810018609	-0.023011742144276925	-0.051989820119430985
13	0.4666666666666647	0.4640185248638796	-0.012099466738814013	-0.1660201506435638	0.47587851200860876	-0.015369427606776287	-0.14661272781494328	0.47675567528275437	-0.028978252234293733	-0.11863326254399931	0.4790968350830224	-0.030023147619388957	-0.07409881335661372	0.5103703680740236	-0.014596315629392453	-0.10426968840809914	0.5278509886075354	-0.010522301500176967	-0.10668429285568815	0.537353062339154	0.009392376089974341	-0.1187311200014225	0.49519230759204635	0.015289104750708549	-0.11988673423460072	0.509155371545576	-0.014961659686341888	-0.08585664555499661	0.5264142946320687	-0.009604581728683947	-0.08466028037241013	0.5413010667575646	0.013550108950548423	-0.09423388289354184	0.5005788222302564	0.031210296883642852	-0.09932941856959254	0.5070249897864907	-0.0031104972412532295	-0.07131873616419582	0.5241862556133435	0.0018225669249291032	-0.068837641012368	0.5387393018313636	0.021665323779767487	-0.0726656725137983	0.5034142921464886	0.04063257699309952	-0.07787219057338768	0.5059476020238245	-0.0044745848441732905	-0.0537674392081241	0.5222144782574875	-0.0003821905247605173	-0.05035554144688825	0.5322849528744398	0.018026702162745267	-0.05106984531025016	0.5029301889265978	0.03858934746473763	-0.05511445935252102	0.46228308100186094	-0.023011742144276925	-0.051989820119430985
14	0.4999999999999978	0.4645386574340013	-0.011469439632218803	-0.16583140896609927	0.47637200334416113	-0.014804528741702683	-0.1464188072547803	0.4771451972499151	-0.02863010067637517	-0.11854272912561536	0.4792429571179512	-0.029969259464747156	-0.07400402621145785	0.5107809536509427	-0.014463669942181623	-0.10395102229623465	0.528254823380262	-0.010318992238698588	-0.10629314172466531	0.5377568700022379	0.009658602597372723	-0.1182353629401498	0.49559050723547454	0.015472734302387048	-0.11958807042458752	0.5094854461754967	-0.014856619534572402	-0.08555413539833301	0.5267325646877841	-0.009486398329405676	-0.08425120515050943	0.541590626533067	0.013741991421666766	-0.09368992634429518	0.5008617053467961	0.03133783588180472	-0.09895197515983845	0.5072527109511329	-0.003024310301787403	-0.07103891014451325	0.524390875490911	0.0019144246346072258	-0.06841360760279935	0.5389170752960486	0.02180451637820302	-0.0720951492163856	0.5035762249299383	0.04070773910045733	-0.07742556196898354	0.5060230807473198	-0.004445056042052031	-0.05353978122931757	0.522249153266807	-0.00033600856455584527	-0.0499578404955775	0.532282514438562	0.018098366779034092	-0.050521301486918246	0.502912955981773	0.038622344517107665	-0.054653954975938945	0.46228308100186094	-0.023011742144276925	-0.051989820119430985
